<?xml version="1.0" encoding="UTF-8" standalone="no"?>
<svg width="42px" height="42px" viewBox="0 0 42 42" version="1.1" xmlns="http://www.w3.org/2000/svg" xmlns:xlink="http://www.w3.org/1999/xlink">
    <!-- Generator: Sketch 41.2 (35397) - http://www.bohemiancoding.com/sketch -->
    <title>Fill 2</title>
    <desc>Created with Sketch.</desc>
    <defs></defs>
    <g id="Page-1" stroke="none" stroke-width="1" fill="none" fill-rule="evenodd">
        <g id="PPDJs" transform="translate(-533.000000, -4.000000)" fill="#FFC675">
            <g id="nav">
                <g id="fist" transform="translate(532.000000, 3.000000)">
                    <path d="M16.6056,37.3092685 C16.602,36.4978426 16.7616,35.6903981 17.1904,34.5859352 C17.4424,33.9373519 18.0216,33.9879167 18.6276,34.1981389 C19.5944,34.5329815 20.7012,34.9820926 21.4012,35.3248981 C22.0144,35.6251019 21.446,38.4658889 21.4336,39.2287407 C19.9424,38.8831481 17.9316,38.1485648 16.6056,37.3092685 Z M32.3168,39.9708889 C34.3904,38.8481111 36.588,37.1145741 39.0288,37.4012407 C38.3624,37.4936111 32.986,39.8219815 32.3168,39.9708889 Z M27.9328,41.8620926 C29.7472,40.6791944 29.6648,36.9947315 28.5756,35.7485278 C29.7976,38.8417407 28.21,41.2513333 27.9328,41.8620926 Z M14.8888,30.5096944 C13.9536,32.4574352 10.1908,32.3630741 9.0236,31.091787 C11.806,32.4522593 14.2652,30.7394259 14.8888,30.5096944 Z M16.9728,10.0890741 C17.258,8.06568519 16.29,5.66047222 13.69,4.36410185 C16.4828,4.66948148 18.0424,7.40157407 16.9728,10.0890741 Z M27.6748,8.88348148 C28.7652,5.85277778 27.3416,1.01965741 24.3656,1.849 C27.1392,3.50171296 27.8472,3.19075926 27.6748,8.88348148 Z M18.1572,31.7722222 C19.9792,32.1954537 22.3688,32.2141667 23.8916,31.0014074 C25.5064,29.7153889 25.2272,27.248463 25.4572,24.2906204 C25.7504,20.4035 26.1484,14.9982407 27.0624,12.1455093 C26.8824,14.8624722 26.7372,20.6833981 26.6972,21.7695463 C26.6972,21.7695463 26.2908,26.3231667 26.0848,28.6228704 C25.9752,29.8507593 26.3192,30.2389537 27.46,30.5785741 C28.9788,31.0304722 31.4096,31.322713 32.654,31.0396296 C31.2632,31.7347963 28.1672,31.5480648 26.3516,30.8799722 C27.6052,32.0851667 31.7276,32.403287 33.7024,31.8438889 C35.2316,31.4111019 35.936,29.6031111 36.3356,28.1996389 C37.2436,25.0120648 36.8872,20.024463 36.4636,17.3421389 C36.9388,18.7527778 37.24,20.5591759 37.2916,23.3163519 C37.7328,20.8207593 37.6876,16.8950185 37.1292,14.6928611 C37.7588,16.2050278 37.9972,17.3620463 38.2768,18.4183333 C38.45,17.5400185 38.7312,16.5681389 39.294,15.7519352 C38.1264,20.002963 38.7044,26.0802963 36.9712,30.0486389 C37.9196,30.468287 38.2016,31.1909259 38.4416,31.6491944 C37.786,31.2140185 37.2752,31.1929167 36.3684,31.3032037 C34.2636,34.0368889 27.7364,33.2206852 25.324,31.9366574 C23.5524,33.1163704 20.5864,33.7761019 16.8948,32.9336204 C15.4012,33.3823333 14.8856,34.9904537 16.0856,36.8717037 C16.3472,35.5379074 16.3444,34.7428056 16.932,33.8457778 C17.266,33.3361481 17.9308,33.3253981 18.4572,33.5328333 C22.7716,35.2317315 22.676,34.1702685 22.1924,39.5687593 C22.984,39.9943796 24.1524,40.5633333 24.7888,40.9825833 C24.8616,40.119 25.11,39.4783796 25.706,38.5061019 C25.2616,40.524713 25.6084,42.1419907 28.1588,42.1005833 C30.08,42.2005185 32.4864,40.3913333 35.926,39.0217037 C39.7416,37.5023704 41.8308,36.5762778 42.6932,34.0683426 C43.8408,30.7330556 41.2824,25.9098889 40.4956,22.6956389 C39.9096,24.1859074 39.624,26.1149352 39.1112,29.5047685 C38.7236,24.1206111 41.5644,15.3179537 39.2132,10.4370556 C39.0532,11.5705833 38.9632,13.0696111 38.4768,14.276 C38.3672,11.0167593 38.9728,9.02283333 37.7664,5.95709259 C36.7848,3.4615 32.9152,1.88363889 30.6008,2.76275 C29.6492,3.12387037 29.348,3.526 28.9196,4.50186111 C28.8508,3.91419444 28.7628,3.40337037 28.3872,2.96978704 C27.2608,1.66863889 25.1996,1.06026852 23.6552,1.14905556 C19.948,1.44010185 18.6604,3.89030556 17.8772,6.89871296 C17.83,5.81216667 17.8436,5.01109259 18.0356,4.43935185 C17.2656,4.55640741 14.2536,3.46866667 12.6304,4.10371296 C10.7876,4.83033333 10.0124,6.15417593 9.1152,9.44526852 C8.9472,8.10669444 8.5888,7.82639815 7.7704,7.83515741 C5.5876,7.85864815 3.7188,8.95713889 2.6856,10.8853704 C1.4472,13.1954259 1.3164,17.4818889 1.2996,19.9237315 C1.8788,18.9148241 2.3484,16.7409352 2.4876,15.1308241 C2.8044,17.2346389 2.314,19.2114444 1.8232,20.4962685 C1.1144,22.3536296 0.846,24.1022963 1.054,26.0564074 C1.398,29.3001204 1.3964,31.9800556 6.1144,31.6750741 C7.2252,31.6117685 7.13,30.1143333 7.1224,29.3419259 C7.1108,28.1681852 7.1684,26.0249537 7.1684,26.0249537 C7.1684,26.0249537 7.3632,21.5071667 7.3172,19.8018981 C7.266,17.8864074 7.6732,15.1268426 8.4956,13.6142778 C8.3852,14.4543704 7.956,17.5782407 8.0296,18.637713 C8.0296,18.8200648 8.1028,23.4955185 8.1028,23.4955185 C8.1028,23.4955185 8.0204,28.5735 7.984,29.4864537 C7.8528,32.586037 13.7856,33.7386759 14.992,31.4461389 C15.8156,29.8810185 15.5344,27.0047963 15.5444,25.4655556 C15.5444,25.4655556 15.5796,21.5848056 15.534,19.6641389 C15.5228,19.202287 15.5612,13.5971574 16.3024,12.8136019 C16.4468,13.7221759 16.078,16.2309074 16.19,16.8233519 C16.4188,16.1405278 16.6308,15.8443056 16.9784,15.2781389 C16.1412,17.9246296 16.3936,20.3127222 16.4332,23.0272963 C16.4332,23.0272963 16.3432,26.9434815 16.3264,28.9222778 C16.3192,29.7603796 16.1532,30.978713 16.894,31.5823056 C18.1696,32.6222685 20.9364,32.6218704 21.9252,32.2870278 C20.9564,32.371037 19.138,32.3861667 18.1572,31.7722222 L18.1572,31.7722222 Z" id="Fill-2"></path>
                </g>
            </g>
        </g>
    </g>
</svg>